<svg width="50" height="50" viewBox="0 0 50 50" fill="none" xmlns="http://www.w3.org/2000/svg">
<path d="M25.03 48.06C37.7491 48.06 48.06 37.7491 48.06 25.03C48.06 12.3109 37.7491 2 25.03 2C12.3109 2 2 12.3109 2 25.03C2 37.7491 12.3109 48.06 25.03 48.06Z" fill="white"/>
<path d="M20.1312 37.0001C15.9639 36.9761 12.5168 28.4693 12.5168 24.1371C12.5168 17.0603 17.8256 15.511 19.8716 15.511C20.7936 15.511 21.7782 15.8731 22.6466 16.1935C23.2538 16.417 23.8818 16.6477 24.2311 16.6477C24.4402 16.6477 24.9329 16.4514 25.3679 16.2792C26.2955 15.9099 27.4499 15.4509 28.7941 15.4509C28.7965 15.4509 28.7997 15.4509 28.8021 15.4509C29.8058 15.4509 32.8492 15.6712 34.6788 18.4189L35.1074 19.063L34.4906 19.5284C33.6094 20.1933 32.0016 21.4062 32.0016 23.8087C32.0016 26.6541 33.8225 27.7484 34.6973 28.2747C35.0834 28.507 35.4831 28.7466 35.4831 29.2705C35.4831 29.6125 32.753 36.9577 28.7885 36.9577C27.8184 36.9577 27.1326 36.6661 26.5278 36.4089C25.9158 36.1486 25.3878 35.9243 24.5154 35.9243C24.0732 35.9243 23.5141 36.1334 22.9221 36.3553C22.1131 36.6572 21.1974 37.0001 20.1584 37.0001H20.1312Z" fill="black"/>
<path d="M29.2141 9C29.3173 12.7229 26.6548 15.3057 23.9955 15.1437C23.5573 12.1727 26.6545 9 29.2141 9Z" fill="black"/>
</svg>
